<?xml version="1.0" encoding="UTF-8" standalone="no"?>
<svg width="500" height="900" viewBox="0 0 500 900" xmlns="http://www.w3.org/2000/svg">
  <!-- Fondo gris oscuro -->
  <rect width="500" height="900" fill="#444545"/>
  
  <!-- Definici贸n del patr贸n -->
  <defs>
    <pattern id="fitpro-pattern" x="0" y="0" width="60" height="60" patternUnits="userSpaceOnUse">
      <g fill="none" fill-rule="evenodd">
        <g fill="#FCEC52" fill-opacity="0.05">
          <path d="M36 34v-4h-2v4h-4v2h4v4h2v-4h4v-2h-4zm0-30V0h-2v4h-4v2h4v4h2V6h4V4h-4zM6 34v-4H4v4H0v2h4v4h2v-4h4v-2H6zM6 4V0H4v4H0v2h4v4h2V6h4V4H6z"/>
        </g>
      </g>
    </pattern>
  </defs>
  
  <!-- Aplicaci贸n del patr贸n en todo el lienzo -->
  <rect width="1512" height="1512" fill="url(#fitpro-pattern)"/>
</svg>